<svg width="1136" height="257" viewBox="0 0 1136 257" fill="none" xmlns="http://www.w3.org/2000/svg">
<path d="M347.213 140.126L350.433 131.535H356.234V71.8729H347.213V63.3825H374.944L371.714 71.8729H365.914V131.535H374.944V140.126H347.213Z" fill="white"/>
<path d="M379.345 149.906C379.345 142.492 383.538 137.765 391.925 135.725C388.585 134.115 386.865 131.315 386.865 127.655C386.865 123.685 389.235 120.355 393.855 117.555C387.295 114.865 383.855 107.984 383.855 101.324C383.855 87.8835 392.245 81.4332 405.356 81.4332C408.366 81.4332 410.946 81.7532 413.206 82.5132H433.097L430.297 89.8236H422.776C425.026 92.8337 426.216 96.5938 426.216 101.004C426.216 112.934 417.506 119.495 405.036 119.495C403.102 119.488 401.599 119.378 400.525 119.165C396.975 121.105 395.255 123.465 395.255 126.155C395.255 129.055 398.155 130.565 403.746 130.565H413.526C425.136 130.565 432.337 135.825 432.337 146.146C432.337 159.366 422.446 165.926 402.676 165.926C389.235 165.926 379.345 161.306 379.345 149.906ZM423.306 147.006C423.306 143.896 422.446 141.846 420.726 140.775C418.906 139.695 415.466 139.165 410.306 139.165H400.415C392.355 139.165 388.375 142.606 388.375 149.586C388.375 155.606 393.105 158.726 402.566 158.726C416.426 158.726 423.306 154.856 423.306 147.006ZM416.856 100.894C416.856 92.5036 412.886 88.3135 405.036 88.3135C397.185 88.3135 393.215 92.6136 393.215 101.004C393.215 108.958 397.192 112.934 405.146 112.934C412.986 112.934 416.856 108.844 416.856 100.894Z" fill="white"/>
<path d="M475.868 82.0833L474.688 90.7936C472.858 90.3636 470.388 90.0335 468.448 90.0335C459.528 90.0335 451.687 97.7738 451.687 109.384V140.126H442.227V82.5132H449.957L451.037 93.0437H451.467C455.118 86.7034 461.038 81.4332 469.098 81.4332C471.248 81.4332 473.938 81.6533 475.868 82.0833Z" fill="white"/>
<path d="M526.17 107.454V113.144H486.719C487.039 126.155 493.599 133.145 505.099 133.145C510.69 133.145 516.39 132.065 520.91 130.345L523.59 137.445C517.68 140.026 512.52 141.206 504.669 141.206C488.229 141.206 476.938 130.995 476.938 111.754C476.938 92.8336 487.149 81.4332 502.419 81.4332C517.14 81.4332 526.17 91.7537 526.17 107.454ZM486.939 105.624H516.28C516.18 95.8439 511.88 89.1735 502.309 89.1735C493.279 89.1735 487.909 95.3038 486.939 105.624Z" fill="white"/>
<path d="M529.28 158.076C535.411 155.286 536.811 151.196 536.811 140.986V82.5132H546.271V141.525C546.271 152.816 543.261 161.736 532.29 165.926L529.28 158.076ZM541.651 60.9024C544.551 60.9024 547.131 62.7324 547.131 66.9226C547.131 71.0128 544.551 72.9429 541.651 72.9429C538.531 72.9429 536.061 71.0128 536.061 66.9226C536.061 62.7324 538.531 60.9024 541.651 60.9024Z" fill="white"/>
<path d="M602.703 100.894V140.126H595.823L593.993 131.955H593.563C588.513 138.305 583.892 141.206 574.212 141.206C563.792 141.206 556.051 135.825 556.051 124.115C556.051 112.614 564.862 106.264 583.672 105.734L593.453 105.414V101.964C593.453 92.4037 589.053 89.1735 581.522 89.1735C575.502 89.1735 570.022 91.3236 565.292 93.5837L562.392 86.4935C567.442 83.8034 574.532 81.5432 582.062 81.5432C596.033 81.5432 602.703 87.4534 602.703 100.894ZM584.852 112.284C570.452 112.824 565.832 116.915 565.832 124.215C565.832 130.665 570.132 133.575 576.362 133.575C586.043 133.575 593.343 128.305 593.343 117.125V111.964L584.852 112.284Z" fill="white"/>
<path d="M684.386 116.375H653.965L644.825 140.126H635.044L665.036 63.0525H673.746L703.627 140.126H693.637L684.386 116.375ZM672.876 84.5633C672.236 82.8433 669.976 75.743 669.226 73.0529C668.146 77.4631 666.756 82.0832 665.896 84.5633L657.185 107.784H681.476L672.876 84.5633Z" fill="white"/>
<path d="M705.447 111.424C705.447 91.6537 714.907 81.4333 729.208 81.4333C738.128 81.4333 743.499 85.2034 747.049 89.9236H747.699C747.479 88.1035 747.049 83.5834 747.049 81.4333V62.0926L756.509 58.4324V140.126H748.879L747.479 132.385H747.049C743.609 137.335 738.128 141.206 729.098 141.206C714.797 141.206 705.447 131.205 705.447 111.424ZM747.159 113.254V111.534C747.159 97.2439 743.289 89.2836 730.498 89.2836C720.288 89.2836 715.227 97.9939 715.227 111.644C715.227 125.405 720.288 133.355 730.608 133.355C742.749 133.355 747.159 126.695 747.159 113.254Z" fill="white"/>
<path d="M764.349 82.5132H774.45L786.71 116.485C788.43 121.205 790.68 128.195 791.33 131.745H791.76C792.51 128.195 794.981 121.105 796.601 116.485L808.851 82.5132H818.961L797.031 140.126H786.17L764.349 82.5132Z" fill="white"/>
<path d="M871.624 107.454V113.144H832.172C832.492 126.155 839.052 133.145 850.553 133.145C856.143 133.145 861.843 132.065 866.353 130.345L869.043 137.445C863.133 140.026 857.973 141.206 850.123 141.206C833.682 141.206 822.392 130.995 822.392 111.754C822.392 92.8336 832.602 81.4332 847.863 81.4332C862.593 81.4332 871.624 91.7537 871.624 107.454ZM832.392 105.624H861.733C861.623 95.8439 857.323 89.1735 847.763 89.1735C838.732 89.1735 833.352 95.3038 832.392 105.624Z" fill="white"/>
<path d="M930.416 102.614V140.126H921.066V103.254C921.066 94.0137 916.985 89.3935 908.165 89.3935C895.375 89.3935 891.284 96.8039 891.284 110.244V140.126H881.834V82.5132H889.464L890.864 90.3636H891.394C895.154 84.3434 902.255 81.4332 909.565 81.4332C923.326 81.4332 930.416 87.7835 930.416 102.614Z" fill="white"/>
<path d="M968.897 132.065L971.477 138.835C969.437 140.126 965.347 141.206 960.937 141.206C951.917 141.206 944.066 137.335 944.066 123.365V72.8329L953.527 69.2927V82.5132H970.187V89.8236H953.527V123.145C953.527 130.135 957.287 133.465 962.557 133.465C964.707 133.465 967.607 132.715 968.897 132.065Z" fill="white"/>
<path d="M992.428 66.9226C992.428 71.0128 989.848 72.9429 986.948 72.9429C983.838 72.9429 981.358 71.0128 981.358 66.9226C981.358 62.7324 983.838 60.9024 986.948 60.9024C989.848 60.9024 992.428 62.7324 992.428 66.9226ZM991.568 140.126H982.108V82.5132H991.568V140.126Z" fill="white"/>
<path d="M1022.21 141.206C1014.14 141.206 1008.55 139.915 1004.15 137.545L1006.94 130.245C1010.7 131.855 1016.94 133.575 1022.42 133.575C1031.99 133.575 1036.07 130.245 1036.07 125.075C1036.07 120.785 1033.17 118.205 1021.88 113.904C1010.7 109.604 1004.04 106.164 1004.04 96.7038C1004.04 86.9235 1012.75 81.4332 1025.64 81.4332C1032.63 81.4332 1038.65 82.9433 1044.03 85.3034L1041.12 92.9337C1036.18 90.7936 1030.59 89.1735 1025 89.1735C1017.26 89.1735 1013.07 91.8636 1013.07 96.1638C1013.07 101.004 1016.83 102.934 1027.9 107.124C1038.87 111.214 1045.21 114.975 1045.21 124.215C1045.21 135.405 1036.29 141.206 1022.21 141.206Z" fill="white"/>
<path d="M1081.64 132.065L1084.22 138.835C1082.18 140.126 1078.1 141.206 1073.69 141.206C1064.66 141.206 1056.81 137.335 1056.81 123.365V72.8329L1066.27 69.2927V82.5132H1082.93V89.8236H1066.27V123.145C1066.27 130.135 1070.03 133.465 1075.3 133.465C1077.45 133.465 1080.35 132.715 1081.64 132.065Z" fill="white"/>
<path d="M1135.17 100.894V140.126H1128.29L1126.46 131.955H1126.03C1120.98 138.305 1116.36 141.206 1106.69 141.206C1096.26 141.206 1088.52 135.825 1088.52 124.115C1088.52 112.614 1097.33 106.264 1116.14 105.734L1125.93 105.414V101.964C1125.93 92.4037 1121.52 89.1735 1113.99 89.1735C1107.97 89.1735 1102.49 91.3236 1097.76 93.5837L1094.86 86.4935C1099.91 83.8034 1107.01 81.5432 1114.53 81.5432C1128.51 81.5432 1135.17 87.4534 1135.17 100.894ZM1117.32 112.284C1102.92 112.824 1098.3 116.915 1098.3 124.215C1098.3 130.665 1102.6 133.575 1108.83 133.575C1118.51 133.575 1125.82 128.305 1125.82 117.125V111.964L1117.32 112.284Z" fill="white"/>
<path d="M346.673 226.689C346.673 206.918 356.134 196.698 370.424 196.698C379.355 196.698 384.725 200.468 388.275 205.198H388.915C388.705 203.368 388.275 198.848 388.275 196.698V177.357L397.735 173.697V255.39H390.095L388.705 247.65H388.275C384.835 252.6 379.355 256.47 370.324 256.47C356.024 256.47 346.673 246.47 346.673 226.689ZM388.375 228.519V226.799C388.375 212.508 384.505 204.548 371.714 204.548C361.504 204.548 356.454 213.258 356.454 226.909C356.454 240.669 361.504 248.62 371.824 248.62C383.975 248.62 388.375 241.959 388.375 228.519Z" fill="white"/>
<path d="M433.847 256.47C418.576 256.47 407.396 245.61 407.396 226.479C407.396 207.448 417.606 196.698 434.167 196.698C449.757 196.698 460.718 207.448 460.718 226.479C460.718 245.61 450.287 256.47 433.847 256.47ZM434.057 248.62C445.667 248.62 450.937 240.129 450.937 226.479C450.937 212.828 445.667 204.658 433.947 204.658C422.236 204.658 417.186 212.828 417.186 226.479C417.186 240.129 422.346 248.62 434.057 248.62Z" fill="white"/>
<path d="M521.01 256.47C512.41 256.47 504.779 255.18 499.939 252.81L502.949 244.86C506.289 246.36 513.27 248.09 521.44 248.09C532.841 248.09 538.751 243.349 538.751 235.719C538.751 228.199 534.561 224.979 520.69 219.919C507.58 215.188 500.909 209.068 500.909 197.128C500.909 184.987 510.91 177.567 525.42 177.567C533.801 177.567 540.791 179.287 546.601 181.867L543.481 190.147C538.101 187.887 531.87 186.057 525.2 186.057C515.64 186.057 510.69 190.577 510.69 197.238C510.69 204.978 514.99 208.098 527.46 212.718C541.011 217.768 548.421 222.819 548.421 234.859C548.421 248.51 537.781 256.47 521.01 256.47Z" fill="white"/>
<path d="M604.313 222.719V228.409H564.862C565.182 241.419 571.742 248.41 583.242 248.41C588.833 248.41 594.533 247.33 599.043 245.61L601.733 252.71C595.823 255.29 590.663 256.47 582.812 256.47C566.372 256.47 555.081 246.26 555.081 227.019C555.081 208.098 565.292 196.698 580.562 196.698C595.283 196.698 604.313 207.018 604.313 222.719ZM565.082 220.889H594.423C594.323 211.108 590.023 204.438 580.452 204.438C571.422 204.438 566.042 210.568 565.082 220.889ZM594.963 174.127C592.273 178.107 584.643 186.377 579.592 190.247H573.352V188.957C576.472 184.987 581.092 177.887 583.573 173.057H594.963V174.127Z" fill="white"/>
<path d="M639.245 247.33L641.825 254.1C639.785 255.39 635.694 256.47 631.294 256.47C622.264 256.47 614.414 252.6 614.414 238.629V188.107L623.874 184.557V197.778H640.535V205.088H623.874V238.409C623.874 245.399 627.634 248.73 632.904 248.73C635.054 248.73 637.955 247.98 639.245 247.33Z" fill="white"/>
<path d="M662.786 182.187C662.786 186.277 660.205 188.207 657.305 188.207C654.185 188.207 651.715 186.277 651.715 182.187C651.715 177.997 654.185 176.167 657.305 176.167C660.205 176.167 662.786 177.997 662.786 182.187ZM661.925 255.39H652.465V197.778H661.925V255.39Z" fill="white"/>
<path d="M760.279 217.879V255.39H750.929V218.308C750.929 209.278 747.169 204.658 739.208 204.658C728.028 204.658 723.618 211.318 723.618 223.579V255.39H714.268V218.308C714.268 209.278 710.507 204.658 702.447 204.658C690.837 204.658 687.076 212.068 687.076 225.509V255.39H677.616V197.778H685.246L686.646 205.628H687.187C690.727 199.608 697.287 196.698 704.167 196.698C712.978 196.698 718.998 199.818 721.798 206.378H722.328C726.198 199.818 733.298 196.698 740.819 196.698C753.829 196.698 760.279 203.048 760.279 217.879Z" fill="white"/>
<path d="M797.031 256.47C781.77 256.47 770.59 245.61 770.59 226.479C770.59 207.448 780.8 196.698 797.351 196.698C812.941 196.698 823.902 207.448 823.902 226.479C823.902 245.61 813.481 256.47 797.031 256.47ZM797.251 248.62C808.861 248.62 814.121 240.129 814.121 226.479C814.121 212.828 808.861 204.658 797.141 204.658C785.42 204.658 780.37 212.828 780.37 226.479C780.37 240.129 785.53 248.62 797.251 248.62Z" fill="white"/>
<path d="M887.314 255.39H865.923V178.647H889.574C912.685 178.647 927.416 191.647 927.416 216.268C927.416 242.169 912.585 255.39 887.314 255.39ZM888.174 186.917H875.604V247.12H886.024C906.775 247.12 917.205 236.799 917.205 216.589C917.205 196.168 906.665 186.917 888.174 186.917Z" fill="white"/>
<path d="M949.117 182.187C949.117 186.277 946.536 188.207 943.636 188.207C940.526 188.207 938.046 186.277 938.046 182.187C938.046 177.997 940.526 176.167 943.636 176.167C946.536 176.167 949.117 177.997 949.117 182.187ZM948.257 255.39H938.796V197.778H948.257V255.39Z" fill="white"/>
<path d="M1004.69 216.158V255.39H997.808L995.988 247.22H995.558C990.498 253.57 985.878 256.47 976.208 256.47C965.777 256.47 958.037 251.1 958.037 239.379C958.037 227.879 966.857 221.529 985.668 220.999L995.448 220.679V217.228C995.448 207.668 991.038 204.438 983.518 204.438C977.498 204.438 972.017 206.588 967.287 208.848L964.377 201.758C969.437 199.068 976.528 196.808 984.048 196.808C998.028 196.808 1004.69 202.718 1004.69 216.158ZM986.848 227.559C972.447 228.089 967.817 232.179 967.817 239.479C967.817 245.93 972.117 248.84 978.358 248.84C988.028 248.84 995.338 243.569 995.338 232.389V227.229L986.848 227.559Z" fill="white"/>
<path d="M1006.94 181.977C1006.94 177.787 1009.85 174.777 1014.04 174.777C1018.01 174.777 1021.13 177.787 1021.13 181.977C1021.13 186.057 1018.12 189.067 1014.04 189.067C1009.85 189.067 1006.94 186.057 1006.94 181.977ZM1020.06 181.977C1020.06 178.647 1017.59 175.847 1014.04 175.847C1010.49 175.847 1008.02 178.427 1008.02 181.977C1008.02 185.307 1010.49 187.997 1014.04 187.997C1017.37 187.997 1020.06 185.527 1020.06 181.977ZM1011.35 177.677H1013.82C1015.97 177.677 1016.94 178.537 1016.94 180.257C1016.94 181.437 1016.19 182.077 1015.43 182.407L1017.69 186.167H1015.97L1014.04 182.837H1012.86V186.167H1011.35V177.677ZM1013.82 181.657C1014.79 181.657 1015.43 181.117 1015.43 180.257C1015.43 179.397 1014.89 178.967 1013.82 178.967H1012.86V181.657H1013.82Z" fill="white"/>
<path d="M169.247 147.766C157.746 159.266 152.176 164.746 149.306 178.697C149.086 179.737 147.896 179.737 147.896 178.697V161.606C147.896 150.646 157.656 140.635 169.286 129.005L178.637 119.655C191.737 106.554 194.897 91.3836 184.477 82.3532C183.607 81.6032 184.067 80.6731 185.197 81.1932C198.188 87.1134 208.428 108.624 186.157 130.895L169.247 147.766ZM147.856 191.687V208.888C147.856 209.928 149.046 209.928 149.266 208.888C152.136 194.938 157.696 189.347 169.207 177.847L187.427 159.666C209.688 137.395 213.548 115.844 202.218 102.004C201.468 101.074 200.658 101.634 201.148 102.744C208.628 119.685 190.677 137.645 182.127 146.196L169.247 159.076C157.616 170.707 147.856 180.727 147.856 191.687ZM98.4638 136.335C76.1929 158.596 86.4333 180.107 99.4238 186.027C100.564 186.547 101.014 185.617 100.144 184.867C89.7334 175.847 92.8936 160.666 105.994 147.566L142.995 110.554C154.626 98.9338 164.386 88.9135 164.386 77.9531V60.8724C164.386 59.8324 163.196 59.8224 162.986 60.8724C160.106 74.813 154.546 80.2931 143.035 91.7936L98.4638 136.335ZM164.436 47.8818V30.6812C164.436 29.6412 163.246 29.6312 163.036 30.6812C160.156 44.6217 154.596 50.212 143.095 61.7124L97.2137 107.554C74.9429 129.825 71.0927 151.376 82.4131 165.226C83.1732 166.146 83.9832 165.596 83.4932 164.476C76.0029 147.536 93.9536 129.575 102.504 121.025L143.045 80.4832C154.676 68.8527 164.436 58.8422 164.436 47.8818ZM92.3835 82.4132C73.2328 101.564 70.5627 121.815 74.6529 135.035C74.9929 136.155 75.9729 136.225 75.9629 135.055C75.8629 123.955 79.053 114.414 99.3238 94.1436L143.006 50.472C154.636 38.8416 164.396 28.8312 164.396 17.8708V0.78003C164.396 -0.26001 163.206 -0.26001 162.986 0.78003C160.116 14.7306 154.536 20.2309 143.035 31.7313L92.3835 82.4132ZM119.165 221.029C118.775 221.029 118.465 220.719 118.465 220.329V210.408C118.465 210.028 118.775 209.708 119.165 209.708L135.935 209.718C136.325 209.718 136.635 209.398 136.635 209.018C136.595 200.108 129.875 194.058 102.974 198.738L44.8817 208.718C44.8817 208.718 0.630001 252.97 0.269987 253.4C-0.330036 254.12 0.12999 255.04 1.06003 254.96C1.87006 254.88 97.7138 238.319 97.7138 238.319C119.715 234.609 131.705 245.079 135.295 254.89C135.615 255.76 136.645 255.63 136.645 254.8C136.645 254.2 136.645 221.729 136.645 221.729C136.645 221.339 136.335 221.029 135.955 221.029H119.165ZM188.497 199.918L169.286 219.148C157.666 230.769 147.896 240.789 147.896 251.75L147.906 254.8C147.906 255.63 148.936 255.76 149.256 254.89C152.846 245.079 164.846 234.609 186.847 238.319C186.847 238.319 282.691 254.88 283.491 254.96C284.431 255.04 284.891 254.12 284.291 253.4C283.921 252.97 239.679 208.718 239.679 208.718L188.497 199.918ZM209.988 132.205C209.638 131.085 208.668 131.005 208.678 132.185C208.778 143.286 205.578 152.826 185.317 173.087L169.286 189.107C161.996 196.398 155.436 203.058 151.556 209.718H167.386C167.993 209.111 168.616 208.488 169.257 207.848L192.257 184.827C211.408 165.676 214.078 145.416 209.988 132.205ZM147.896 238.799C147.896 239.839 149.086 239.839 149.306 238.799C150.886 231.119 153.296 225.999 157.056 221.029L148.596 221.039C148.216 221.039 147.896 221.349 147.896 221.729V238.799Z" fill="white"/>
<path d="M270.31 222.608C270.31 218.468 273.3 215.478 277.43 215.478C281.37 215.478 284.55 218.468 284.55 222.608C284.55 226.738 281.56 229.728 277.43 229.728C273.3 229.728 270.31 226.738 270.31 222.608ZM283.44 222.608C283.44 219.248 280.94 216.508 277.43 216.508C273.92 216.508 271.39 219.048 271.39 222.608C271.39 225.958 273.92 228.698 277.43 228.698C280.75 228.698 283.44 226.158 283.44 222.608ZM274.77 218.378H277.25C279.37 218.378 280.32 219.208 280.32 220.878C280.32 222.098 279.58 222.778 278.81 223.088L281.06 226.858H279.39L277.45 223.498H276.24V226.858H274.77V218.378ZM277.21 222.298C278.22 222.298 278.83 221.728 278.83 220.918C278.83 220.008 278.32 219.618 277.2 219.618H276.24V222.298H277.21Z" fill="white"/>
</svg>
