<svg width="837" height="197" viewBox="0 0 837 197" fill="none" xmlns="http://www.w3.org/2000/svg">
<path d="M0 51.3913H45.5623C52.7564 53.7896 58.8656 58.2435 63.89 64.753C69.0286 71.1484 71.598 79.0284 71.598 88.393C71.598 103.696 65.5458 114.945 53.4415 122.14L70.7415 171.304H46.7613L32.2019 127.622H23.1237V171.304H0V51.3913ZM23.1237 71.9478V108.436H37.8544C39.7957 107.979 41.9082 106.037 44.192 102.611C46.5901 99.071 47.7891 94.9597 47.7891 90.2774C47.7891 85.5951 46.7613 81.4838 44.7059 77.9435C42.7646 74.4032 40.8234 72.4046 38.8821 71.9478H23.1237Z" fill="#E36520"/>
<path d="M121.049 131.733H102.721C100.323 134.702 99.1243 138.414 99.1243 142.868C99.1243 147.322 100.38 150.805 102.893 153.317H121.049V131.733ZM84.2223 83.7678H126.701C133.553 87.8791 138.064 92.6186 140.233 97.9861C142.403 103.239 143.488 110.434 143.488 119.57V145.266C143.488 154.745 143.716 163.424 144.173 171.304H124.646L121.563 165.137C117.109 169.249 110.829 171.304 102.721 171.304H91.9302C82.224 164.909 77.3709 155.716 77.3709 143.724C77.3709 131.619 82.3382 122.083 92.2728 115.117H108.374C112.827 115.117 116.995 116.487 120.878 119.228V110.663C120.878 106.209 118.936 103.239 115.054 101.755H84.2223V83.7678Z" fill="#E36520"/>
<path d="M196.245 83.7678H214.402C219.426 90.1632 222.852 96.5586 224.679 102.954C226.506 109.349 227.42 117.343 227.42 126.937V171.304H204.638V125.223C204.638 114.374 203.154 106.551 200.185 101.755H181.001V171.304H158.22V83.7678H176.033L179.117 89.9348C181.629 87.6507 183.97 86.0519 186.139 85.1383C188.423 84.2246 191.792 83.7678 196.245 83.7678Z" fill="#E36520"/>
<path d="M241.521 171.304V51.3913H264.302V114.945H266.7L282.801 83.7678H305.069L284.857 121.969L305.24 171.304H282.63L266.872 132.932H264.302V171.304H241.521Z" fill="#E36520"/>
<path d="M314.452 171.304V83.7678H337.062V171.304H314.452ZM314.452 51.3913H337.062V74.5174H314.452V51.3913Z" fill="#E36520"/>
<path d="M389.78 83.7678H407.936C412.96 90.1632 416.386 96.5586 418.213 102.954C420.04 109.349 420.954 117.343 420.954 126.937V171.304H398.173V125.223C398.173 114.374 396.688 106.551 393.719 101.755H374.535V171.304H351.754V83.7678H369.568L372.651 89.9348C375.163 87.6507 377.504 86.0519 379.674 85.1383C381.957 84.2246 385.326 83.7678 389.78 83.7678Z" fill="#E36520"/>
<path d="M501.344 83.7678V162.225C501.344 170.905 500.202 177.871 497.918 183.124C495.748 188.378 491.352 193.003 484.729 197H445.675V179.184H474.965C477.82 177.471 479.248 174.73 479.248 170.962V160.855C475.022 164.395 468.285 166.165 459.036 166.165H446.532C437.282 155.088 432.657 142.24 432.657 127.622C432.657 117.115 434.142 108.55 437.111 101.926C440.08 95.1881 444.419 89.1354 450.129 83.7678H462.804C470.226 83.7678 476.107 86.1661 480.447 90.9626L483.53 83.7678H501.344ZM478.562 101.755H461.948C457.837 108.835 455.781 117.001 455.781 126.251C455.781 135.388 457.551 142.925 461.091 148.863H478.562V101.755Z" fill="#E36520"/>
<path d="M546.828 29.3665H509.921V0H616.976V29.3665H580.069V171.304H546.828V29.3665Z" fill="#E36520"/>
<path d="M651.804 101.755H638.957C637.245 103.81 635.817 106.666 634.675 110.32C633.648 113.974 633.134 117.515 633.134 120.941H657.628C657.856 117.515 657.399 113.974 656.257 110.32C655.116 106.551 653.631 103.696 651.804 101.755ZM675.099 153.317V171.304H631.592C623.599 165.937 617.946 159.313 614.635 151.433C611.437 143.439 609.839 135.388 609.839 127.279C609.839 108.55 616.919 94.0461 631.078 83.7678H658.827C666.478 89.3638 671.673 95.3023 674.414 101.583C677.154 107.865 678.525 114.203 678.525 120.598C678.525 126.994 678.011 132.475 676.983 137.043H634.333C634.675 139.67 635.646 142.697 637.245 146.123C638.957 149.434 640.785 151.833 642.726 153.317H675.099Z" fill="#E36520"/>
<path d="M729.586 101.755H716.739C715.026 103.81 713.599 106.666 712.457 110.32C711.429 113.974 710.915 117.515 710.915 120.941H735.409C735.638 117.515 735.181 113.974 734.039 110.32C732.897 106.551 731.413 103.696 729.586 101.755ZM752.881 153.317V171.304H709.374C701.38 165.937 695.728 159.313 692.416 151.433C689.219 143.439 687.62 135.388 687.62 127.279C687.62 108.55 694.7 94.0461 708.86 83.7678H736.608C744.259 89.3638 749.455 95.3023 752.196 101.583C754.936 107.865 756.306 114.203 756.306 120.598C756.306 126.994 755.793 132.475 754.765 137.043H712.114C712.457 139.67 713.428 142.697 715.026 146.123C716.739 149.434 718.566 151.833 720.507 153.317H752.881Z" fill="#E36520"/>
<path d="M805.826 83.7678H823.982C829.007 90.1632 832.432 96.5585 834.259 102.954C836.086 109.349 837 117.343 837 126.937V171.304H814.219V125.223C814.219 114.374 812.734 106.551 809.765 101.755H790.581V171.304H767.8V83.7678H785.614L788.697 89.9348C791.209 87.6507 793.55 86.0519 795.72 85.1383C798.004 84.2246 801.372 83.7678 805.826 83.7678Z" fill="#E36520"/>
</svg>
